<svg id="d7c9ae35-1139-4555-b2a8-29ab8cbe4a36" data-name="Facebook" xmlns="http://www.w3.org/2000/svg" viewBox="0 0 48.54 48.54"><defs><style>.\35 0affa55-e8d8-4c75-b541-81339a6640ed{fill:#fff;}</style></defs><title>Facebook2b</title><path class="50affa55-e8d8-4c75-b541-81339a6640ed" d="M46.57,49.29a2.68,2.68,0,0,0,2.68-2.68V3.43A2.68,2.68,0,0,0,46.57.75H3.39A2.68,2.68,0,0,0,.71,3.43V46.61a2.68,2.68,0,0,0,2.68,2.68Zm-19.93,0V30.49H20.31V23.17h6.33V17.76c0-6.27,3.83-9.68,9.42-9.68a51.45,51.45,0,0,1,5.65.29v6.55H37.83c-3,0-3.63,1.45-3.63,3.57v4.68h7.26l-1,7.32H34.2v18.8Z" transform="translate(-0.71 -0.75)"/></svg>