<svg id="7d318545-f018-4fe4-bf60-14f392485c2a" data-name="TWITTER" xmlns="http://www.w3.org/2000/svg" viewBox="0 0 49.97 39.97"><defs><style>.d3a56eda-1f93-4ea0-8e6a-3fe96ba5096d{fill:#fff;fill-rule:evenodd;}</style></defs><title>twitter2</title><path class="d3a56eda-1f93-4ea0-8e6a-3fe96ba5096d" d="M50,9.74a21.72,21.72,0,0,1-5.88,1.6,10.08,10.08,0,0,0,4.53-5.61A20.77,20.77,0,0,1,42.12,8.2a10.3,10.3,0,0,0-17.76,6.88,10.64,10.64,0,0,0,.3,2.3A29,29,0,0,1,3.53,6.84a10.16,10.16,0,0,0-1.41,5.07,10.08,10.08,0,0,0,4.55,8.4A9.94,9.94,0,0,1,2,19.06v.14a9.54,9.54,0,0,0,.7,3.63,10.21,10.21,0,0,0,7.53,6.23,9.8,9.8,0,0,1-2.71.38,9.41,9.41,0,0,1-1.92-.21,10.33,10.33,0,0,0,9.57,7A20.76,20.76,0,0,1,2.5,40.58,22.72,22.72,0,0,1,0,40.44,29.57,29.57,0,0,0,15.75,45c16,0,25.9-11.08,28.48-22.6a27.87,27.87,0,0,0,.67-6.1V15A20.94,20.94,0,0,0,50,9.74Z" transform="translate(-0.03 -5)"/></svg>