<svg xmlns="http://www.w3.org/2000/svg" viewBox="0 0 49.75 49.75"><defs><style>.\33 4c34ca6-7219-4c17-a196-7a9d2c9a99df,.f4da38c7-83b5-45d0-aec5-a3e97a937d2c{fill:#fff;}.\33 4c34ca6-7219-4c17-a196-7a9d2c9a99df{fill-rule:evenodd;}</style></defs><title>Pinterest6</title><g id="a23e363d-b847-41d0-b097-88f97130ad54" data-name="Circle"><path class="f4da38c7-83b5-45d0-aec5-a3e97a937d2c" d="M30.92,1.09A24.87,24.87,0,1,1,13.34,8.37,24.78,24.78,0,0,1,30.92,1.09ZM47.15,9.75A23,23,0,1,0,53.86,26,22.9,22.9,0,0,0,47.15,9.75Z" transform="translate(-6.05 -1.09)"/></g><g id="13373822-95da-402a-8cfe-08a95719cd70" data-name="Pinterest"><path class="34c34ca6-7219-4c17-a196-7a9d2c9a99df" d="M31.6,10.23c-9.49,0-14.31,6.58-14.31,12.1a11,11,0,0,0,.36,2.92,6.41,6.41,0,0,0,3.74,4.5.67.67,0,0,0,1-.47c.11-.35.31-1.19.42-1.56s.09-.66-.27-1.08a5.2,5.2,0,0,1-1.1-2,6.52,6.52,0,0,1-.24-1.79c0-4.9,3.79-9.3,9.88-9.3,5.37,0,8.34,3.17,8.34,7.43A17.34,17.34,0,0,1,39,24.55c-.84,3.9-3,6.73-6,6.73a3,3,0,0,1-3.17-3.74c.29-1.16.71-2.37,1.08-3.54a12.62,12.62,0,0,0,.71-3.34,2.62,2.62,0,0,0-2.73-2.91c-2.14,0-3.86,2.16-3.86,5a8.31,8.31,0,0,0,.12,1.43,7.28,7.28,0,0,0,.52,1.65s-2.2,9-2.57,10.58a20.66,20.66,0,0,0,0,7.36.27.27,0,0,0,.47.11,20.45,20.45,0,0,0,3.63-6.34c.22-.88,1.41-5.35,1.41-5.35a5.74,5.74,0,0,0,4.9,2.44c5.22,0,9.11-3.8,10.37-9.31a17.83,17.83,0,0,0,.44-4c0-5.77-5-11.11-12.72-11.11Z" transform="translate(-6.05 -1.09)"/></g></svg>