<svg xmlns="http://www.w3.org/2000/svg" viewBox="0 0 58.85 62.61"><defs><style>.\33 cfc65e7-2fdf-42a5-bd5e-6fdb1b93a5cc,.d35707a1-41f4-485c-b7a4-bde42a769f54,.fba9f89e-9e6b-4b9f-85cd-5a9e74374107{fill:#fff;}.fba9f89e-9e6b-4b9f-85cd-5a9e74374107{fill-rule:evenodd;}.\33 cfc65e7-2fdf-42a5-bd5e-6fdb1b93a5cc{font-size:8.42px;font-family:Montserrat-Bold, Montserrat;font-weight:700;}</style></defs><title>FacebookResidential</title><g id="b75f7cc4-afe0-4015-9cac-3e26d2a95f85" data-name="Circle"><path class="d35707a1-41f4-485c-b7a4-bde42a769f54" d="M30.92,1.09A24.87,24.87,0,1,1,13.34,8.37,24.78,24.78,0,0,1,30.92,1.09ZM47.15,9.75A23,23,0,1,0,53.86,26,22.9,22.9,0,0,0,47.15,9.75Z" transform="translate(-1.82 -1.09)"/></g><g id="295750ce-d0ba-4735-a090-6d8b1703d2bd" data-name="Facebook Residential"><path class="fba9f89e-9e6b-4b9f-85cd-5a9e74374107" d="M33.36,20.75v-2a1.05,1.05,0,0,1,1.1-1.19h2.81V13.26H33.4c-4.3,0-5.26,3.17-5.26,5.23v2.26h-2.5v5h2.53V38.26h5V25.75h3.71l.16-2,.3-3Z" transform="translate(-1.82 -1.09)"/><text class="3cfc65e7-2fdf-42a5-bd5e-6fdb1b93a5cc" transform="translate(0 60.37)">RESIDENTIAL</text></g></svg>