<svg id="0f862fe6-db53-4739-9724-366f6100199f" data-name="instagram" xmlns="http://www.w3.org/2000/svg" viewBox="0 0 49.3 49.3"><defs><style>.f022d7b7-daef-4baa-9f3c-23d5094468ee{fill:#fff;fill-rule:evenodd;}</style></defs><title>Instagram2</title><path class="f022d7b7-daef-4baa-9f3c-23d5094468ee" d="M12.76,24.64a12.59,12.59,0,1,1,12.57,12.6,12.61,12.61,0,0,1-12.57-12.6ZM38.35,0h-26A11.68,11.68,0,0,0,.7,11.65v26A11.69,11.69,0,0,0,12.35,49.3h26A11.68,11.68,0,0,0,50,37.65v-26A11.67,11.67,0,0,0,38.35,0Zm-26,2.91h26a8.75,8.75,0,0,1,8.74,8.74v26a8.75,8.75,0,0,1-8.74,8.74h-26a8.75,8.75,0,0,1-8.74-8.74v-26a8.75,8.75,0,0,1,8.74-8.74ZM40.93,6.59a2.56,2.56,0,1,0,2.56,2.56,2.55,2.55,0,0,0-2.56-2.56Zm.3,18.05a15.9,15.9,0,1,0-15.9,15.9,15.9,15.9,0,0,0,15.9-15.9Z" transform="translate(-0.7)"/></svg>