<svg id="b7bf6f8d-eebd-4c7b-9a7c-b14b4e32a99f" data-name="LINKEDIKN" xmlns="http://www.w3.org/2000/svg" viewBox="0 0 48.42 48.42"><defs><style>.a7b7e6bd-cf45-4104-afb9-7e64c3dbab33{fill:#fff;}</style></defs><title>LinkedIn2b</title><path id="a8f89258-11f9-4c07-a982-406470e411d7" data-name="LinkedIn (alt)" class="a7b7e6bd-cf45-4104-afb9-7e64c3dbab33" d="M45.57,1.08H4.3A3.52,3.52,0,0,0,.72,4.55V46A3.52,3.52,0,0,0,4.3,49.5H45.57A3.52,3.52,0,0,0,49.15,46V4.55A3.52,3.52,0,0,0,45.57,1.08ZM15.4,41.61H8.09V19.75H15.4ZM11.75,16.76H11.7a3.79,3.79,0,1,1,.09-7.55,3.79,3.79,0,1,1,0,7.55Zm30,24.85H34.46V29.91C34.46,27,33.4,25,30.76,25A4,4,0,0,0,27,27.63a4.76,4.76,0,0,0-.25,1.77V41.61H19.45s.1-19.81,0-21.86h7.31v3.1a7.27,7.27,0,0,1,6.59-3.62c4.82,0,8.43,3.13,8.43,9.84V41.61ZM26.72,22.92l0-.07v.07Z" transform="translate(-0.72 -1.08)"/></svg>