<svg xmlns="http://www.w3.org/2000/svg" viewBox="0 0 49.75 49.75"><defs><style>.\36 bba8a4b-ace8-4405-9fb7-687a892ca6b8,.\38 df904fe-9055-4664-9cc9-e34f16036238{fill:#fff;}.\38 df904fe-9055-4664-9cc9-e34f16036238{fill-rule:evenodd;}</style></defs><title>LinkedIn</title><g id="f1a4cd64-d628-4f15-97b2-60cd57c8b926" data-name="Circle"><path class="6bba8a4b-ace8-4405-9fb7-687a892ca6b8" d="M30.92,1.09A24.87,24.87,0,1,1,13.34,8.37,24.78,24.78,0,0,1,30.92,1.09ZM47.15,9.75A23,23,0,1,0,53.86,26,22.9,22.9,0,0,0,47.15,9.75Z" transform="translate(-6.05 -1.09)"/></g><g id="757e3e16-da00-47a1-810a-9e5bf5d5bfba" data-name="LINKEDIKN"><path class="8df904fe-9055-4664-9cc9-e34f16036238" d="M19.33,24.83V37h5.8V20.42h-5.8Zm24.73.69c-.39-3.15-1.82-5.1-6.06-5.1-2.49,0-4.16.92-4.86,2.24h-.08V20.42H28.44V37h4.83V28.78c0-2.17.43-4.26,3.08-4.26s2.87,2.48,2.87,4.41V37h5V27.9a19.52,19.52,0,0,0-.13-2.38ZM22.23,12.14a2.9,2.9,0,1,0,2.9,2.9,2.9,2.9,0,0,0-2.9-2.9Z" transform="translate(-6.05 -1.09)"/></g></svg>