<svg id="65f23e39-69d4-4fa6-8c39-27aa46559568" data-name="Pinterest" xmlns="http://www.w3.org/2000/svg" viewBox="0 0 48.37 48.37"><defs><style>.\33 3d54887-3df5-438e-b1ac-015db1dc06b6{fill:#fff;}</style></defs><title>Pinterestred2</title><path class="33d54887-3df5-438e-b1ac-015db1dc06b6" d="M36.82,3.75A23.66,23.66,0,0,0,24.68.51,23.71,23.71,0,0,0,12.54,3.75a24.19,24.19,0,0,0-8.8,8.8A23.71,23.71,0,0,0,.5,24.69,23.42,23.42,0,0,0,4.5,38,24.1,24.1,0,0,0,15,46.86a20.89,20.89,0,0,1,.4-5.57l3.12-13.16a8.48,8.48,0,0,1-.79-3.85,7.24,7.24,0,0,1,1.36-4.47A4,4,0,0,1,22.39,18a2.94,2.94,0,0,1,2.42,1,4,4,0,0,1,.85,2.61,9.9,9.9,0,0,1-.36,2.38c-.24.93-.56,2-.95,3.24s-.66,2.21-.83,2.94a3.59,3.59,0,0,0,.72,3.3,3.87,3.87,0,0,0,3.09,1.37q3.38,0,5.53-3.75A18,18,0,0,0,35,22.05a8.91,8.91,0,0,0-2.66-6.71,10.19,10.19,0,0,0-7.41-2.58A11.45,11.45,0,0,0,13,24.35a7.17,7.17,0,0,0,1.61,4.75A1.44,1.44,0,0,1,15,30.45c-.05.13-.13.45-.26.95s-.21.83-.25,1c-.17.68-.56.89-1.19.63A7.08,7.08,0,0,1,9.6,29.51a12.59,12.59,0,0,1-1.26-5.76A13.74,13.74,0,0,1,9,19.53a14.18,14.18,0,0,1,2.11-4.08A16.63,16.63,0,0,1,14.56,12a16.09,16.09,0,0,1,4.87-2.43,20.45,20.45,0,0,1,6.17-.91,16.13,16.13,0,0,1,8,2,14.16,14.16,0,0,1,5.43,5.13,12.93,12.93,0,0,1,1.87,6.74A21.19,21.19,0,0,1,39.3,31a14.09,14.09,0,0,1-4.63,5.94,11.42,11.42,0,0,1-6.8,2.15,7.41,7.41,0,0,1-3.59-.9A5.15,5.15,0,0,1,22,36.06l-1.7,6.64a19.39,19.39,0,0,1-2.46,5.17,24.14,24.14,0,0,0,27.8-11,23.6,23.6,0,0,0,3.25-12.14,23.6,23.6,0,0,0-3.25-12.14A24,24,0,0,0,36.82,3.75Z" transform="translate(-0.5 -0.51)"/></svg>