<svg id="89207196-2af3-448f-ba8b-25f468f280c6" data-name="Youtube" xmlns="http://www.w3.org/2000/svg" viewBox="0 0 50.06 36.73"><defs><style>.\30 cd0a5e1-1ae9-43f1-93a1-f7c6a79cae74{fill:#fff;}</style></defs><title>YouTube2</title><g id="75a8661e-10d7-485d-b4ec-ee79d5e76e67" data-name="13f38b99-fba8-49ad-8277-372d08edf508"><path class="0cd0a5e1-1ae9-43f1-93a1-f7c6a79cae74" d="M49.51,15.08a11.82,11.82,0,0,0-2-5.17,7.12,7.12,0,0,0-5-2.23C35.5,7.17,25,7.17,25,7.17h0s-10.5,0-17.5.51a7.06,7.06,0,0,0-5,2.23,11.58,11.58,0,0,0-2,5.17,79.29,79.29,0,0,0-.51,8.43v3.95a78.76,78.76,0,0,0,.51,8.41,11.84,11.84,0,0,0,2,5.25A8.12,8.12,0,0,0,8,43.35c4,.4,17,.55,17,.55s10.49,0,17.5-.55a6.92,6.92,0,0,0,5-2.23,12,12,0,0,0,2-5.21A82.26,82.26,0,0,0,50,27.46V23.51C50,20.7,49.81,17.88,49.51,15.08ZM33.32,25,19.78,32.29V17.66L25.92,21Z" transform="translate(0.06 -7.17)"/></g></svg>