<?xml version="1.0" encoding="utf-8"?>
<!-- Generator: Adobe Illustrator 22.1.0, SVG Export Plug-In . SVG Version: 6.00 Build 0)  -->
<svg version="1.1" id="Layer_1" xmlns="http://www.w3.org/2000/svg" xmlns:xlink="http://www.w3.org/1999/xlink" x="0px" y="0px"
	 viewBox="0 0 50 50" style="enable-background:new 0 0 50 50;" xml:space="preserve">
<style type="text/css">
	.st0{fill:#979798;}
</style>
<path class="st0" d="M49.8,21.7l0-0.1c0-0.4-0.1-0.8-0.3-1.1c-0.1-0.2-0.3-0.5-0.6-0.7L27,3.8c-1.3-0.9-3.1-0.9-4.4,0L1.1,20.2
	l-0.2,0.2c-0.1,0.1-0.3,0.3-0.4,0.4l-0.2,0.4c-0.2,0.3-0.3,0.6-0.3,1l0,22.1c0,2.8,2.8,5,6.1,5h11.7c1.8,0,3.3-1.3,3.3-2.8
	c0-0.1,0-0.1,0-0.2l0-11.3h7.2v11.1c0,0.1,0,0.1,0,0.2l0,0.2c0,1.6,1.5,2.8,3.3,2.8h12.2c3.4,0,6.1-2.3,6.1-5.1L49.8,21.7z
	 M28.4,29.3h-7.3c-3.6,0-6.6,2.3-6.6,5v9.3H6.6v-20L24.9,9.7l18.2,13.4l0.2,20.6H35v-9.3C35,31.6,32,29.3,28.4,29.3z"/>
</svg>
