<?xml version="1.0" encoding="UTF-8" standalone="no"?>
<!DOCTYPE svg PUBLIC "-//W3C//DTD SVG 1.1//EN" "http://www.w3.org/Graphics/SVG/1.1/DTD/svg11.dtd">
<svg version="1.1" xmlns="http://www.w3.org/2000/svg" xmlns:xlink="http://www.w3.org/1999/xlink" preserveAspectRatio="xMidYMid meet" viewBox="0 0 640 640" width="640" height="640"><defs><path d="M283.52 155.52C295.68 143.36 309.76 137.6 326.4 137.6C343.04 137.6 357.12 143.36 369.28 155.52C381.44 167.68 387.2 181.76 387.2 198.4C387.2 215.04 381.44 229.12 369.28 241.28C357.12 253.44 343.04 259.2 326.4 259.2C309.76 259.2 295.68 253.44 283.52 241.28C271.36 229.12 265.6 215.04 265.6 198.4C265.6 181.76 271.36 167.68 283.52 155.52" id="c3Psw7yvR8"></path><path d="M283.52 398.72C295.68 386.56 309.76 380.8 326.4 380.8C343.04 380.8 357.12 386.56 369.28 398.72C381.44 410.88 387.2 424.96 387.2 441.6C387.2 458.24 381.44 472.32 369.28 484.48C357.12 496.64 343.04 502.4 326.4 502.4C309.76 502.4 295.68 496.64 283.52 484.48C271.36 472.32 265.6 458.24 265.6 441.6C265.6 424.96 271.36 410.24 283.52 398.72" id="b288gcLrAJ"></path><path d="M405.12 34.56C417.28 22.4 431.36 16.64 448 16.64C464.64 16.64 478.72 22.4 490.88 34.56C503.04 46.72 508.8 60.8 508.8 77.44C508.8 94.08 503.04 108.16 490.88 120.32C478.72 132.48 464.64 138.24 448 138.24C431.36 138.24 417.28 132.48 405.12 120.32C392.96 108.16 387.2 94.08 387.2 77.44C387.2 60.8 392.96 46.08 405.12 34.56" id="a5nY37ro3T"></path><path d="M405.12 519.68C417.28 507.52 431.36 501.76 448 501.76C464.64 501.76 478.72 507.52 490.88 519.68C503.04 531.84 508.8 545.92 508.8 562.56C508.8 579.2 503.04 593.28 490.88 605.44C478.72 617.6 464.64 623.36 448 623.36C431.36 623.36 417.28 617.6 405.12 605.44C392.96 593.28 387.2 579.2 387.2 562.56C387.2 545.92 392.96 531.84 405.12 519.68" id="a1tyOH5UiY"></path><path d="M161.92 277.12C174.08 264.96 188.16 259.2 204.8 259.2C221.44 259.2 235.52 264.96 247.68 277.12C259.84 289.28 265.6 303.36 265.6 320C265.6 336.64 259.84 350.72 247.68 362.88C235.52 375.04 221.44 380.8 204.8 380.8C188.16 380.8 174.08 375.04 161.92 362.88C149.76 350.72 144 336.64 144 320C144 303.36 150.4 289.28 161.92 277.12" id="a2cTm71Le1"></path></defs><g><g><g><use xlink:href="#c3Psw7yvR8" opacity="1" fill="#c62127" fill-opacity="1"></use><g><use xlink:href="#c3Psw7yvR8" opacity="1" fill-opacity="0" stroke="#000000" stroke-width="1" stroke-opacity="0"></use></g></g><g><use xlink:href="#b288gcLrAJ" opacity="1" fill="#c62127" fill-opacity="1"></use><g><use xlink:href="#b288gcLrAJ" opacity="1" fill-opacity="0" stroke="#000000" stroke-width="1" stroke-opacity="0"></use></g></g><g><use xlink:href="#a5nY37ro3T" opacity="1" fill="#c62127" fill-opacity="1"></use><g><use xlink:href="#a5nY37ro3T" opacity="1" fill-opacity="0" stroke="#000000" stroke-width="1" stroke-opacity="0"></use></g></g><g><use xlink:href="#a1tyOH5UiY" opacity="1" fill="#c62127" fill-opacity="1"></use><g><use xlink:href="#a1tyOH5UiY" opacity="1" fill-opacity="0" stroke="#000000" stroke-width="1" stroke-opacity="0"></use></g></g><g><use xlink:href="#a2cTm71Le1" opacity="1" fill="#c62127" fill-opacity="1"></use><g><use xlink:href="#a2cTm71Le1" opacity="1" fill-opacity="0" stroke="#000000" stroke-width="1" stroke-opacity="0"></use></g></g></g></g></svg>