<?xml version="1.0" encoding="UTF-8" standalone="no"?>
<!DOCTYPE svg PUBLIC "-//W3C//DTD SVG 1.1//EN" "http://www.w3.org/Graphics/SVG/1.1/DTD/svg11.dtd">
<svg version="1.1" xmlns="http://www.w3.org/2000/svg" xmlns:xlink="http://www.w3.org/1999/xlink" preserveAspectRatio="xMidYMid meet" viewBox="0 0 640 640" width="640" height="640"><defs><path d="M369.28 484.48C357.12 496.64 343.04 502.4 326.4 502.4C309.76 502.4 295.68 496.64 283.52 484.48C271.36 472.32 265.6 458.24 265.6 441.6C265.6 424.96 271.36 410.88 283.52 398.72C295.68 386.56 309.76 380.8 326.4 380.8C343.04 380.8 357.12 386.56 369.28 398.72C381.44 410.88 387.2 424.96 387.2 441.6C387.2 458.24 381.44 472.32 369.28 484.48" id="c3p9Lz09v"></path><path d="M369.28 241.28C357.12 253.44 343.04 259.2 326.4 259.2C309.76 259.2 295.68 253.44 283.52 241.28C271.36 229.12 265.6 215.04 265.6 198.4C265.6 181.76 271.36 167.68 283.52 155.52C295.68 143.36 309.76 137.6 326.4 137.6C343.04 137.6 357.12 143.36 369.28 155.52C381.44 167.68 387.2 181.76 387.2 198.4C387.2 215.04 381.44 229.76 369.28 241.28" id="aitLTb2V7"></path><path d="M247.68 605.44C235.52 617.6 221.44 623.36 204.8 623.36C188.16 623.36 174.08 617.6 161.92 605.44C149.76 593.28 144 579.2 144 562.56C144 545.92 149.76 531.84 161.92 519.68C174.08 507.52 188.16 501.76 204.8 501.76C221.44 501.76 235.52 507.52 247.68 519.68C259.84 531.84 265.6 545.92 265.6 562.56C265.6 579.2 259.84 593.92 247.68 605.44" id="c17XiPlaMU"></path><path d="M247.68 120.32C235.52 132.48 221.44 138.24 204.8 138.24C188.16 138.24 174.08 132.48 161.92 120.32C149.76 108.16 144 94.08 144 77.44C144 60.8 149.76 46.72 161.92 34.56C174.08 22.4 188.16 16.64 204.8 16.64C221.44 16.64 235.52 22.4 247.68 34.56C259.84 46.72 265.6 60.8 265.6 77.44C265.6 94.08 259.84 108.16 247.68 120.32" id="d2F4qdTPMI"></path><path d="M490.88 362.88C478.72 375.04 464.64 380.8 448 380.8C431.36 380.8 417.28 375.04 405.12 362.88C392.96 350.72 387.2 336.64 387.2 320C387.2 303.36 392.96 289.28 405.12 277.12C417.28 264.96 431.36 259.2 448 259.2C464.64 259.2 478.72 264.96 490.88 277.12C503.04 289.28 508.8 303.36 508.8 320C508.8 336.64 502.4 350.72 490.88 362.88" id="c2OaQU4zMb"></path></defs><g><g><g><use xlink:href="#c3p9Lz09v" opacity="1" fill="#c62127" fill-opacity="1"></use><g><use xlink:href="#c3p9Lz09v" opacity="1" fill-opacity="0" stroke="#000000" stroke-width="1" stroke-opacity="0"></use></g></g><g><use xlink:href="#aitLTb2V7" opacity="1" fill="#c62127" fill-opacity="1"></use><g><use xlink:href="#aitLTb2V7" opacity="1" fill-opacity="0" stroke="#000000" stroke-width="1" stroke-opacity="0"></use></g></g><g><use xlink:href="#c17XiPlaMU" opacity="1" fill="#c62127" fill-opacity="1"></use><g><use xlink:href="#c17XiPlaMU" opacity="1" fill-opacity="0" stroke="#000000" stroke-width="1" stroke-opacity="0"></use></g></g><g><use xlink:href="#d2F4qdTPMI" opacity="1" fill="#c62127" fill-opacity="1"></use><g><use xlink:href="#d2F4qdTPMI" opacity="1" fill-opacity="0" stroke="#000000" stroke-width="1" stroke-opacity="0"></use></g></g><g><use xlink:href="#c2OaQU4zMb" opacity="1" fill="#c62127" fill-opacity="1"></use><g><use xlink:href="#c2OaQU4zMb" opacity="1" fill-opacity="0" stroke="#000000" stroke-width="1" stroke-opacity="0"></use></g></g></g></g></svg>