<svg xmlns="http://www.w3.org/2000/svg" viewBox="0 0 49.75 49.75"><defs><style>.\34 b7d8b61-0712-4f16-98cb-075c2f08547e,.ad1b7180-1205-487b-9f0a-056c51f5a992{fill:#fff;}.ad1b7180-1205-487b-9f0a-056c51f5a992{fill-rule:evenodd;}</style></defs><title>YouTube</title><g id="44918ce6-89bb-47f5-8384-f4e8c72180a5" data-name="Circle"><path class="4b7d8b61-0712-4f16-98cb-075c2f08547e" d="M30.92,1.09A24.87,24.87,0,1,1,13.34,8.37,24.78,24.78,0,0,1,30.92,1.09ZM47.15,9.75A23,23,0,1,0,53.86,26,22.9,22.9,0,0,0,47.15,9.75Z" transform="translate(-6.05 -1.09)"/></g><g id="13f38b99-fba8-49ad-8277-372d08edf508" data-name="YouTube"><path class="ad1b7180-1205-487b-9f0a-056c51f5a992" d="M44.73,20.23a6.39,6.39,0,0,0-1.1-2.83,3.88,3.88,0,0,0-2.73-1.22c-3.83-.28-9.57-.28-9.57-.28h0s-5.74,0-9.57.28A3.87,3.87,0,0,0,19,17.4a6.39,6.39,0,0,0-1.1,2.83,44.19,44.19,0,0,0-.28,4.61V27a43.37,43.37,0,0,0,.28,4.6A6.48,6.48,0,0,0,19,34.47a4.46,4.46,0,0,0,3,1.22c2.18.22,9.31.3,9.31.3s5.74,0,9.57-.3a3.79,3.79,0,0,0,2.73-1.22,6.48,6.48,0,0,0,1.1-2.85A45,45,0,0,0,45,27V24.84a45.8,45.8,0,0,0-.27-4.61Zm-8.85,5.41-7.41,4v-8l3.36,1.83Z" transform="translate(-6.05 -1.09)"/></g></svg>