<svg xmlns="http://www.w3.org/2000/svg" viewBox="0 0 49.75 49.75"><defs><style>.\32 61ce2ff-b2aa-4311-97c6-cdd907c31d77,.\34 ef844b2-e070-4a0a-9e8d-341c4fc25249{fill:#fff;}.\32 61ce2ff-b2aa-4311-97c6-cdd907c31d77{fill-rule:evenodd;}</style></defs><title>twitter</title><g id="eee63039-bc4a-4234-b0f6-f1d690b1dc9b" data-name="Circle"><path class="4ef844b2-e070-4a0a-9e8d-341c4fc25249" d="M30.92,1.09A24.87,24.87,0,1,1,13.34,8.37,24.78,24.78,0,0,1,30.92,1.09ZM47.15,9.75A23,23,0,1,0,53.86,26,22.9,22.9,0,0,0,47.15,9.75Z" transform="translate(-6.05 -1.09)"/></g><g id="39188fee-1c3a-4b12-8c15-d7435612c1ba" data-name="TWITTER"><path class="261ce2ff-b2aa-4311-97c6-cdd907c31d77" d="M43.23,18a11,11,0,0,1-3,.81A5.06,5.06,0,0,0,42.54,16a10.55,10.55,0,0,1-3.28,1.24,5.19,5.19,0,0,0-8.94,3.46,5.41,5.41,0,0,0,.15,1.16,14.63,14.63,0,0,1-10.65-5.31,5.23,5.23,0,0,0-.71,2.56,5.07,5.07,0,0,0,2.3,4.23,5.13,5.13,0,0,1-2.34-.63v.07a4.89,4.89,0,0,0,.36,1.83,5.15,5.15,0,0,0,3.79,3.13,4.81,4.81,0,0,1-1.36.2,5.15,5.15,0,0,1-1-.11,5.19,5.19,0,0,0,4.82,3.54A10.44,10.44,0,0,1,19.3,33.5c-.42,0-.81,0-1.24-.06A15,15,0,0,0,26,35.71,14.37,14.37,0,0,0,40.32,24.33a14.09,14.09,0,0,0,.34-3.07v-.65A10.74,10.74,0,0,0,43.23,18Z" transform="translate(-6.05 -1.09)"/></g></svg>