<svg xmlns="http://www.w3.org/2000/svg" viewBox="0 0 61.51 62.61"><defs><style>.\30 56e936a-c352-4718-9e89-9c3e0de40c1e,.\32 d8f0546-74fc-4d60-99cc-7d270d1cd557,.\39 1bf8c56-f676-4ae3-9efd-3a0bdaee1ae8{fill:#fff;}.\30 56e936a-c352-4718-9e89-9c3e0de40c1e{fill-rule:evenodd;}.\32 d8f0546-74fc-4d60-99cc-7d270d1cd557{font-size:8.42px;font-family:Montserrat-Bold, Montserrat;font-weight:700;}.b5f3e26e-3dc2-464c-b815-f5fef7859f80{letter-spacing:-0.01em;}</style></defs><title>facebookCommercial5</title><g id="07f67eed-2317-4e92-bbe0-1b245b470cc7" data-name="Circle"><path class="91bf8c56-f676-4ae3-9efd-3a0bdaee1ae8" d="M30.92,1.09A24.87,24.87,0,1,1,13.34,8.37,24.78,24.78,0,0,1,30.92,1.09ZM47.15,9.75A23,23,0,1,0,53.86,26,22.9,22.9,0,0,0,47.15,9.75Z" transform="translate(-0.49 -1.09)"/></g><g id="aec3c1f2-2e81-4ea3-ba54-c4de4bbf3963" data-name="FacebookCommercial"><path class="056e936a-c352-4718-9e89-9c3e0de40c1e" d="M33.36,20.75v-2a1.05,1.05,0,0,1,1.1-1.19h2.81V13.26H33.4c-4.3,0-5.26,3.17-5.26,5.23v2.26h-2.5v5h2.53V38.26h5V25.75h3.71l.16-2,.3-3Z" transform="translate(-0.49 -1.09)"/><text class="2d8f0546-74fc-4d60-99cc-7d270d1cd557" transform="translate(0 60.37)"><tspan class="b5f3e26e-3dc2-464c-b815-f5fef7859f80">C</tspan><tspan x="6.04" y="0">OMMERCIAL</tspan></text></g></svg>