<svg xmlns="http://www.w3.org/2000/svg" viewBox="0 0 49.75 49.75"><defs><style>.\36 149d08e-ff92-4015-ab51-a6073392b91f,.b8a41af4-3ef6-4e43-9c33-6df3fb953742{fill:#fff;}.b8a41af4-3ef6-4e43-9c33-6df3fb953742{fill-rule:evenodd;}</style></defs><title>Instagram</title><g id="0cec5573-a47c-45ab-bff7-aa8abc9b6ff7" data-name="Circle"><path class="6149d08e-ff92-4015-ab51-a6073392b91f" d="M30.92,1.09A24.87,24.87,0,1,1,13.34,8.37,24.78,24.78,0,0,1,30.92,1.09ZM47.15,9.75A23,23,0,1,0,53.86,26,22.9,22.9,0,0,0,47.15,9.75Z" transform="translate(-6.05 -1.09)"/></g><g id="e2129354-0e35-4ad5-931b-cd15dc93bed0" data-name="instagram"><path class="b8a41af4-3ef6-4e43-9c33-6df3fb953742" d="M23.67,26a7.26,7.26,0,1,1,7.25,7.27A7.26,7.26,0,0,1,23.67,26ZM38.42,11.76h-15a6.73,6.73,0,0,0-6.71,6.71v15a6.75,6.75,0,0,0,6.71,6.72h15a6.73,6.73,0,0,0,6.71-6.72v-15a6.72,6.72,0,0,0-6.71-6.71Zm-15,1.68h15a5,5,0,0,1,5,5v15a5,5,0,0,1-5,5h-15a5,5,0,0,1-5-5v-15a5,5,0,0,1,5-5Zm16.48,2.11A1.48,1.48,0,1,0,41.38,17a1.48,1.48,0,0,0-1.47-1.48ZM40.08,26a9.16,9.16,0,1,0-9.16,9.16A9.17,9.17,0,0,0,40.08,26Z" transform="translate(-6.05 -1.09)"/></g></svg>